<svg width="508.8124633789062px" height="122px" xmlns="http://www.w3.org/2000/svg" viewBox="-4.406231689453108 14 508.8124633789062 122" style="background: rgba(11, 29, 39, 0);" preserveAspectRatio="xMidYMid"><defs><linearGradient id="editing-outline-gradient" x1="-0.41354545764260087" x2="1.4135454576426008" y1="0.09326335692419985" y2="0.9067366430758002"><stop offset="0" stop-color="#000000"></stop><stop offset="1" stop-color="#0b1d27"></stop></linearGradient><filter id="editing-outline" x="-100%" y="-100%" width="300%" height="300%"><feMorphology in="SourceGraphic" operator="dilate" radius="1" result="outline"></feMorphology><feComposite operator="out" in="outline" in2="SourceAlpha"></feComposite></filter></defs><g filter="url(#editing-outline)"><g transform="translate(70.60499265789986, 104.76000022888184)"><path d="M0.45-0.32L0.45-0.32L8.51-42.24L8.51-42.24Q16.06-42.88 20.93-42.88L20.93-42.88L20.93-42.88Q25.79-42.88 28.93-42.46L28.93-42.46L28.93-42.46Q32.06-42.05 34.18-40.96L34.18-40.96L34.18-40.96Q38.40-38.91 38.40-33.28L38.40-33.28L38.40-33.28Q38.40-30.02 35.58-27.26L35.58-27.26L35.58-27.26Q32.96-24.77 30.08-24.19L30.08-24.19L30.08-24.19Q33.15-23.68 35.33-21.38L35.33-21.38L35.33-21.38Q37.63-18.94 37.63-15.17L37.63-15.17L37.63-15.17Q37.63-7.87 32.19-3.62L32.19-3.62L32.19-3.62Q26.75 0.64 16.06 0.64L16.06 0.64L16.06 0.64Q8.70 0.64 0.45-0.32ZM17.86-20.61L14.66-4.03L14.66-4.03Q15.23-3.97 15.36-3.97L15.36-3.97L15.94-3.97L15.94-3.97Q21.18-3.97 23.42-7.42L23.42-7.42L23.42-7.42Q25.09-10.11 25.09-15.04L25.09-15.04L25.09-15.04Q25.09-17.66 23.39-19.07L23.39-19.07L23.39-19.07Q21.70-20.48 17.86-20.61L17.86-20.61ZM27.58-33.22L27.58-33.22L27.58-33.22Q27.58-38.53 22.46-38.53L22.46-38.53L21.89-38.53L21.89-38.53Q21.63-38.53 21.25-38.46L21.25-38.46L18.69-24.96L19.33-24.96L19.33-24.96Q27.58-25.15 27.58-33.22ZM61.89-17.98L61.89-17.98L61.89-17.98Q64.19-22.08 64.19-26.24L64.19-26.24L64.19-26.24Q64.19-28.99 62.21-28.99L62.21-28.99L62.21-28.99Q60.67-28.99 59.07-26.37L59.07-26.37L59.07-26.37Q57.41-23.74 56.90-20.35L56.90-20.35L53.57 0L40.32 1.28L46.85-32.64L57.41-33.92L56.26-27.46L56.26-27.46Q59.39-33.92 66.43-33.92L66.43-33.92L66.43-33.92Q70.14-33.92 72.16-32L72.16-32L72.16-32Q74.18-30.08 74.18-26.14L74.18-26.14L74.18-26.14Q74.18-22.21 71.58-19.71L71.58-19.71L71.58-19.71Q68.99-17.22 64.58-17.22L64.58-17.22L64.58-17.22Q62.66-17.22 61.89-17.98ZM77.98-1.92L77.98-1.92L77.98-1.92Q76.48-3.58 75.81-6.21L75.81-6.21L75.81-6.21Q75.14-8.83 75.14-13.12L75.14-13.12L75.14-13.12Q75.14-17.41 76.61-21.31L76.61-21.31L76.61-21.31Q78.08-25.22 80.77-28.03L80.77-28.03L80.77-28.03Q86.27-33.92 95.36-33.92L95.36-33.92L95.36-33.92Q98.62-33.92 100.99-32.83L100.99-32.83L111.94-33.92L107.20-8.96L107.20-8.96Q107.01-8.19 107.01-6.78L107.01-6.78L107.01-6.78Q107.01-5.38 107.87-4.48L107.87-4.48L107.87-4.48Q108.74-3.58 110.02-3.46L110.02-3.46L110.02-3.46Q109.38-1.28 107.04 0L107.04 0L107.04 0Q104.70 1.28 102.08 1.28L102.08 1.28L102.08 1.28Q99.46 1.28 97.70 0.29L97.70 0.29L97.70 0.29Q95.94-0.70 95.42-2.37L95.42-2.37L95.42-2.37Q94.40-0.77 92.22 0.26L92.22 0.26L92.22 0.26Q90.05 1.28 87.14 1.28L87.14 1.28L87.14 1.28Q84.22 1.28 81.86 0.51L81.86 0.51L81.86 0.51Q79.49-0.26 77.98-1.92ZM91.49-27.90L91.49-27.90L91.49-27.90Q90.75-26.75 90.11-24.80L90.11-24.80L90.11-24.80Q89.47-22.85 88.42-17.63L88.42-17.63L88.42-17.63Q87.36-12.42 87.36-8.70L87.36-8.70L87.36-8.70Q87.36-4.99 87.94-3.90L87.94-3.90L87.94-3.90Q88.51-2.82 89.54-2.82L89.54-2.82L89.54-2.82Q91.58-2.82 93.09-4.77L93.09-4.77L93.09-4.77Q94.59-6.72 95.17-10.18L95.17-10.18L98.56-28.93L98.56-28.93Q97.22-30.08 95.65-30.08L95.65-30.08L95.65-30.08Q94.08-30.08 93.15-29.57L93.15-29.57L93.15-29.57Q92.22-29.06 91.49-27.90ZM130.75-3.52L130.75-3.52L130.75-3.52Q128.77 1.28 122.43 1.28L122.43 1.28L122.43 1.28Q119.17 1.28 117.12-0.96L117.12-0.96L117.12-0.96Q115.39-2.94 115.39-4.93L115.39-4.93L115.39-4.93Q115.39-10.11 117.76-20.22L117.76-20.22L120.13-32.64L133.12-33.92L129.22-13.70L129.22-13.70Q128.13-8.96 128.13-7.30L128.13-7.30L128.13-7.30Q128.13-3.65 130.75-3.52ZM121.28-41.54L121.28-41.54L121.28-41.54Q121.28-44.03 123.36-45.38L123.36-45.38L123.36-45.38Q125.44-46.72 128.45-46.72L128.45-46.72L128.45-46.72Q131.46-46.72 133.28-45.38L133.28-45.38L133.28-45.38Q135.10-44.03 135.10-41.54L135.10-41.54L135.10-41.54Q135.10-39.04 133.09-37.76L133.09-37.76L133.09-37.76Q131.07-36.48 128.06-36.48L128.06-36.48L128.06-36.48Q125.06-36.48 123.17-37.76L123.17-37.76L123.17-37.76Q121.28-39.04 121.28-41.54ZM163.26 1.28L163.26 1.28L163.26 1.28Q155.52 1.28 155.52-4.74L155.52-4.74L155.52-4.74Q155.58-6.40 156.10-9.22L156.10-9.22L157.25-15.10L157.25-15.10Q158.98-23.42 158.98-25.28L158.98-25.28L158.98-25.28Q158.98-28.99 156.80-28.99L156.80-28.99L156.80-28.99Q153.15-28.99 151.23-19.46L151.23-19.46L147.46 0L134.59 1.28L141.25-32.70L151.74-33.92L150.72-27.65L150.72-27.65Q153.73-33.92 162.94-33.92L162.94-33.92L162.94-33.92Q167.42-33.92 169.31-32.03L169.31-32.03L169.31-32.03Q171.20-30.14 171.20-25.92L171.20-25.92L171.20-25.92Q171.20-21.95 169.15-12.67L169.15-12.67L169.15-12.67Q168.19-8.51 168.19-6.94L168.19-6.94L168.19-6.94Q168.19-5.38 169.06-4.48L169.06-4.48L169.06-4.48Q169.92-3.58 171.20-3.46L171.20-3.46L171.20-3.46Q170.56-1.28 168.35 0L168.35 0L168.35 0Q166.14 1.28 163.26 1.28ZM201.28-29.57L201.28-29.57L201.28-29.57Q202.24-31.49 202.24-33.28L202.24-33.28L202.24-33.28Q202.24-35.07 202.05-36.06L202.05-36.06L202.05-36.06Q201.86-37.06 201.41-37.82L201.41-37.82L201.41-37.82Q200.45-39.49 198.53-39.49L198.53-39.49L198.53-39.49Q196.16-39.49 194.24-37.76L194.24-37.76L194.24-37.76Q192.19-35.97 192.19-33.15L192.19-33.15L192.19-33.15Q192.19-31.36 193.44-29.98L193.44-29.98L193.44-29.98Q194.69-28.61 196.61-27.33L196.61-27.33L196.61-27.33Q198.53-26.05 200.70-24.77L200.70-24.77L200.70-24.77Q202.88-23.49 204.80-21.95L204.80-21.95L204.80-21.95Q209.22-18.43 209.22-13.70L209.22-13.70L209.22-13.70Q209.22-10.50 207.52-7.78L207.52-7.78L207.52-7.78Q205.82-5.06 203.01-3.07L203.01-3.07L203.01-3.07Q196.86 1.28 188.74 1.28L188.74 1.28L188.74 1.28Q182.14 1.28 178.75-0.86L178.75-0.86L178.75-0.86Q175.36-3.01 175.36-6.27L175.36-6.27L175.36-6.27Q175.36-12.10 179.90-13.57L179.90-13.57L179.90-13.57Q181.18-14.02 183.14-14.02L183.14-14.02L183.14-14.02Q185.09-14.02 187.33-13.18L187.33-13.18L187.33-13.18Q186.30-10.56 186.30-8.19L186.30-8.19L186.30-8.19Q186.30-3.07 189.95-3.07L189.95-3.07L189.95-3.07Q192.32-3.07 194.27-4.80L194.27-4.80L194.27-4.80Q196.22-6.53 196.22-8.48L196.22-8.48L196.22-8.48Q196.22-10.43 194.98-11.84L194.98-11.84L194.98-11.84Q193.73-13.25 191.87-14.37L191.87-14.37L191.87-14.37Q190.02-15.49 187.87-16.58L187.87-16.58L187.87-16.58Q185.73-17.66 183.87-19.20L183.87-19.20L183.87-19.20Q179.52-22.72 179.52-28.35L179.52-28.35L179.52-28.35Q179.52-32 181.31-34.85L181.31-34.85L181.31-34.85Q183.10-37.70 185.98-39.62L185.98-39.62L185.98-39.62Q191.74-43.52 198.82-43.52L198.82-43.52L198.82-43.52Q205.89-43.52 209.31-41.41L209.31-41.41L209.31-41.41Q212.74-39.30 212.74-35.71L212.74-35.71L212.74-35.71Q212.74-32.58 210.30-30.59L210.30-30.59L210.30-30.59Q208.19-28.93 205.63-28.93L205.63-28.93L205.63-28.93Q203.07-28.93 201.28-29.57ZM243.90-4.38L243.90-4.38L243.90-4.38Q241.22-1.66 237.54-0.19L237.54-0.19L237.54-0.19Q233.86 1.28 230.21 1.28L230.21 1.28L230.21 1.28Q226.56 1.28 225.28 0.64L225.28 0.64L223.30 11.52L210.30 12.80L219.14-32.64L229.57-33.73L228.74-29.31L228.74-29.31Q231.42-33.86 236.99-33.86L236.99-33.86L236.99-33.86Q243.26-33.86 246.59-29.82L246.59-29.82L246.59-29.82Q249.54-26.18 249.54-20.61L249.54-20.61L249.54-20.61Q249.54-15.04 248.06-11.07L248.06-11.07L248.06-11.07Q246.59-7.10 243.90-4.38ZM229.44-22.34L226.05-3.58L226.05-3.58Q227.39-2.43 229.06-2.43L229.06-2.43L229.06-2.43Q230.72-2.43 231.68-3.07L231.68-3.07L231.68-3.07Q232.64-3.71 233.34-4.99L233.34-4.99L233.34-4.99Q235.26-8.45 236.80-18.94L236.80-18.94L236.80-18.94Q237.25-22.02 237.25-25.02L237.25-25.02L237.25-25.02Q237.25-28.03 236.58-28.99L236.58-28.99L236.58-28.99Q235.90-29.95 234.62-29.95L234.62-29.95L234.62-29.95Q230.72-29.95 229.44-22.34L229.44-22.34ZM256.16-1.92L256.16-1.92L256.16-1.92Q254.66-3.58 253.98-6.21L253.98-6.21L253.98-6.21Q253.31-8.83 253.31-13.12L253.31-13.12L253.31-13.12Q253.31-17.41 254.78-21.31L254.78-21.31L254.78-21.31Q256.26-25.22 258.94-28.03L258.94-28.03L258.94-28.03Q264.45-33.92 273.54-33.92L273.54-33.92L273.54-33.92Q276.80-33.92 279.17-32.83L279.17-32.83L290.11-33.92L285.38-8.96L285.38-8.96Q285.18-8.19 285.18-6.78L285.18-6.78L285.18-6.78Q285.18-5.38 286.05-4.48L286.05-4.48L286.05-4.48Q286.91-3.58 288.19-3.46L288.19-3.46L288.19-3.46Q287.55-1.28 285.22 0L285.22 0L285.22 0Q282.88 1.28 280.26 1.28L280.26 1.28L280.26 1.28Q277.63 1.28 275.87 0.29L275.87 0.29L275.87 0.29Q274.11-0.70 273.60-2.37L273.60-2.37L273.60-2.37Q272.58-0.77 270.40 0.26L270.40 0.26L270.40 0.26Q268.22 1.28 265.31 1.28L265.31 1.28L265.31 1.28Q262.40 1.28 260.03 0.51L260.03 0.51L260.03 0.51Q257.66-0.26 256.16-1.92ZM269.66-27.90L269.66-27.90L269.66-27.90Q268.93-26.75 268.29-24.80L268.29-24.80L268.29-24.80Q267.65-22.85 266.59-17.63L266.59-17.63L266.59-17.63Q265.54-12.42 265.54-8.70L265.54-8.70L265.54-8.70Q265.54-4.99 266.11-3.90L266.11-3.90L266.11-3.90Q266.69-2.82 267.71-2.82L267.71-2.82L267.71-2.82Q269.76-2.82 271.26-4.77L271.26-4.77L271.26-4.77Q272.77-6.72 273.34-10.18L273.34-10.18L276.74-28.93L276.74-28.93Q275.39-30.08 273.82-30.08L273.82-30.08L273.82-30.08Q272.26-30.08 271.33-29.57L271.33-29.57L271.33-29.57Q270.40-29.06 269.66-27.90ZM324.74-26.62L324.74-26.62L324.74-26.62Q324.74-23.94 322.50-22.27L322.50-22.27L322.50-22.27Q320.26-20.61 316.61-20.61L316.61-20.61L316.61-20.61Q315.07-20.61 314.18-21.06L314.18-21.06L314.18-21.06Q314.88-22.72 315.10-24.80L315.10-24.80L315.10-24.80Q315.33-26.88 315.33-27.46L315.33-27.46L315.33-27.46Q315.33-30.14 313.47-30.14L313.47-30.14L313.47-30.14Q312.19-30.14 310.75-28.54L310.75-28.54L310.75-28.54Q309.31-26.94 308.10-24.45L308.10-24.45L308.10-24.45Q305.41-18.69 305.41-12.86L305.41-12.86L305.41-12.86Q305.41-9.66 306.62-8.22L306.62-8.22L306.62-8.22Q307.84-6.78 310.53-6.78L310.53-6.78L310.53-6.78Q314.24-6.78 317.18-9.86L317.18-9.86L317.18-9.86Q318.02-10.82 318.46-11.90L318.46-11.90L318.46-11.90Q320.90-10.62 320.90-7.10L320.90-7.10L320.90-7.10Q320.90-3.52 316.93-1.15L316.93-1.15L316.93-1.15Q312.83 1.28 306.30 1.28L306.30 1.28L306.30 1.28Q293.31 1.28 293.31-12.48L293.31-12.48L293.31-12.48Q293.31-22.53 299.01-28.29L299.01-28.29L299.01-28.29Q304.51-33.92 314.62-33.92L314.62-33.92L314.62-33.92Q324.74-33.92 324.74-26.62ZM352.38-10.82L352.38-10.82L352.38-10.82Q353.98-9.73 353.98-7.33L353.98-7.33L353.98-7.33Q353.98-4.93 352.77-3.39L352.77-3.39L352.77-3.39Q351.55-1.86 349.57-0.83L349.57-0.83L349.57-0.83Q345.47 1.28 341.06 1.28L341.06 1.28L341.06 1.28Q336.64 1.28 334.05 0.32L334.05 0.32L334.05 0.32Q331.46-0.64 329.73-2.43L329.73-2.43L329.73-2.43Q326.34-5.82 326.34-12.03L326.34-12.03L326.34-12.03Q326.34-21.70 331.58-27.58L331.58-27.58L331.58-27.58Q337.22-33.92 347.01-33.92L347.01-33.92L347.01-33.92Q353.09-33.92 356.10-31.36L356.10-31.36L356.10-31.36Q358.34-29.44 358.34-26.30L358.34-26.30L358.34-26.30Q358.34-15.04 338.88-15.04L338.88-15.04L338.88-15.04Q338.62-13.38 338.62-11.97L338.62-11.97L338.62-11.97Q338.62-9.02 339.94-7.90L339.94-7.90L339.94-7.90Q341.25-6.78 343.68-6.78L343.68-6.78L343.68-6.78Q346.11-6.78 348.70-7.90L348.70-7.90L348.70-7.90Q351.30-9.02 352.38-10.82ZM339.33-17.79L339.33-17.79L339.33-17.79Q343.87-17.79 346.50-20.61L346.50-20.61L346.50-20.61Q349.12-23.30 349.12-27.58L349.12-27.58L349.12-27.58Q349.12-29.06 348.58-29.86L348.58-29.86L348.58-29.86Q348.03-30.66 346.94-30.66L346.94-30.66L346.94-30.66Q345.86-30.66 344.93-30.24L344.93-30.24L344.93-30.24Q344.00-29.82 343.04-28.42L343.04-28.42L343.04-28.42Q340.67-25.22 339.33-17.79Z" fill="url(#editing-outline-gradient)"></path></g></g><style>text {
  font-size: 64px;
  font-family: Arial Black;
  dominant-baseline: central;
  text-anchor: middle;
}</style></svg>